<svg width="30" height="33" viewBox="0 0 30 33" fill="none" xmlns="http://www.w3.org/2000/svg">
<path d="M13.2111 6.57771C13.9482 5.10361 16.0518 5.10361 16.7889 6.57771L27.9345 28.869C28.7176 30.4353 27.2522 32.1805 25.574 31.68L15.5716 28.6968C15.1987 28.5856 14.8013 28.5856 14.4284 28.6968L4.42598 31.68C2.74782 32.1805 1.28235 30.4353 2.06552 28.869L13.2111 6.57771Z" fill="#10B981"/>
<path d="M13.2111 3.57771C13.9482 2.10361 16.0518 2.10361 16.7889 3.57771L27.9345 25.869C28.7176 27.4353 27.2522 29.1805 25.574 28.68L15.5716 25.6968C15.1987 25.5856 14.8013 25.5856 14.4284 25.6968L4.42598 28.68C2.74782 29.1805 1.28235 27.4353 2.06552 25.869L13.2111 3.57771Z" fill="#1E3A8A"/>
</svg>
