<svg width="150" height="150" viewBox="0 0 150 150" fill="none" xmlns="http://www.w3.org/2000/svg">
<path d="M111.067 102.872C106.418 102.872 102.088 104.223 98.4359 106.547L61.5815 80.8172C62.1732 78.7518 62.4966 76.5732 62.4966 74.3181C62.4966 72.0626 62.1732 69.884 61.5815 67.819L97.4409 42.7831C101.289 45.516 105.988 47.1285 111.067 47.1285C124.081 47.1285 134.631 36.5783 134.631 23.5644C134.631 10.5505 124.081 0 111.067 0C98.0535 0 87.5034 10.5501 87.5034 23.5641C87.5034 25.2828 87.6924 26.9567 88.0417 28.5708L51.2717 54.2425C47.6825 52.0318 43.4575 50.754 38.9325 50.754C25.9186 50.754 15.3685 61.3041 15.3685 74.3181C15.3685 87.332 25.9183 97.8821 38.9325 97.8821C43.4572 97.8821 47.6825 96.6043 51.2717 94.3937L88.3256 120.264C87.7928 122.232 87.5034 124.3 87.5034 126.436C87.5034 139.45 98.0535 150 111.067 150C124.081 150 134.632 139.45 134.632 126.436C134.632 113.422 124.081 102.872 111.067 102.872Z" fill="#1E3A8A"/>
</svg>
