<svg width="205" height="35" viewBox="0 0 205 35" fill="none" xmlns="http://www.w3.org/2000/svg">
<path d="M15.6409 16.1513C17.853 16.8887 20.065 17.626 45.4145 16.5312C70.7639 15.4363 119.184 12.4869 147.322 9.86144C175.461 7.236 181.852 5.02393 183.423 4.25306C184.995 3.48218 181.554 4.21954 172.53 6.68857C163.507 9.15759 149.006 13.3359 122.978 17.5776C96.9513 21.8193 59.8376 25.9976 39.8582 28.1501C13.4571 30.9944 4.99021 31.7922 4.09271 30.932C2.80639 29.699 11.3061 28.3512 42.4837 25.007C73.6612 21.6629 130.192 16.7472 160.42 13.969C190.648 11.1909 192.86 10.6993 194.737 10.4461C196.614 10.1929 198.088 10.1929 201.097 9.44807" stroke="#10B981" stroke-width="7" stroke-linecap="round"/>
</svg>
